<?xml version="1.0" standalone="no"?>
<!DOCTYPE svg PUBLIC "-//W3C//DTD SVG 20010904//EN"
 "http://www.w3.org/TR/2001/REC-SVG-20010904/DTD/svg10.dtd">
<svg version="1.0" xmlns="http://www.w3.org/2000/svg"
 width="512.000000pt" height="512.000000pt" viewBox="0 0 512.000000 512.000000"
 preserveAspectRatio="xMidYMid meet">

<g transform="translate(0.000000,512.000000) scale(0.100000,-0.100000)"
fill="#000000" stroke="none">
<path d="M2410 4044 c-131 -16 -315 -74 -420 -131 -210 -116 -389 -301 -494
-510 -15 -29 -30 -53 -34 -53 -4 0 -41 8 -82 17 -103 23 -336 22 -445 -1 -227
-49 -408 -143 -569 -296 -143 -135 -244 -294 -306 -478 -232 -691 242 -1429
970 -1512 78 -8 530 -11 1750 -8 l1645 3 90 28 c314 98 530 337 591 655 72
375 -137 755 -501 913 -58 25 -60 27 -58 60 17 245 2 358 -71 514 -116 246
-342 419 -611 466 -106 18 -282 7 -381 -25 l-81 -26 -65 63 c-156 150 -359
258 -573 302 -79 16 -287 27 -355 19z m263 -175 c157 -23 321 -90 444 -180 32
-24 97 -83 144 -131 98 -100 105 -102 194 -63 98 44 177 58 300 52 129 -5 210
-28 304 -85 172 -104 286 -267 321 -462 14 -75 6 -206 -15 -278 -22 -70 -19
-115 8 -139 12 -11 62 -32 110 -48 385 -122 574 -551 402 -913 -68 -143 -174
-248 -320 -319 -141 -67 -38 -64 -1888 -60 l-1672 2 -85 23 c-103 28 -251 97
-334 156 -405 290 -532 836 -296 1273 217 402 671 601 1115 488 118 -30 147
-31 167 -7 9 9 36 60 61 113 24 53 63 123 86 157 209 309 587 476 954 421z"/>
</g>
</svg>
